<svg xmlns="http://www.w3.org/2000/svg" viewBox="0 0 692.96 840.32"><defs><style>.cls-1,.cls-13,.cls-25,.cls-3{fill:none;}.cls-2{font-size:30px;letter-spacing:1.5em;}.cls-10,.cls-12,.cls-14,.cls-15,.cls-16,.cls-17,.cls-19,.cls-2,.cls-4,.cls-6,.cls-7,.cls-8,.cls-9{fill:#231815;}.cls-10,.cls-14,.cls-15,.cls-16,.cls-17,.cls-2,.cls-4,.cls-6,.cls-7,.cls-8,.cls-9{font-family:ArialUnicodeMS, Arial Unicode MS;}.cls-3{stroke:#41bfed;stroke-width:0.75px;}.cls-13,.cls-20,.cls-21,.cls-22,.cls-23,.cls-24,.cls-25,.cls-3{stroke-miterlimit:10;}.cls-10,.cls-14,.cls-16,.cls-4,.cls-6,.cls-7,.cls-8,.cls-9{font-size:12px;}.cls-11,.cls-4{letter-spacing:0.5em;}.cls-5{letter-spacing:0.05em;}.cls-6{letter-spacing:2.5em;}.cls-7{letter-spacing:2em;}.cls-8{letter-spacing:6.1em;}.cls-9{letter-spacing:1em;}.cls-10{letter-spacing:0.25em;}.cls-12{font-size:13px;font-family:AdobeGothicStd-Bold-KSCpc-EUC-H, Adobe Gothic Std;letter-spacing:0.2em;}.cls-13{stroke:#4690ce;stroke-width:1.5px;}.cls-14{letter-spacing:0.6em;}.cls-15{font-size:11px;}.cls-17{font-size:10px;}.cls-18{opacity:0.22;}.cls-20{fill:#faf2b9;}.cls-20,.cls-21,.cls-22,.cls-23,.cls-24{stroke:#7c7c7a;}.cls-20,.cls-21,.cls-22,.cls-23,.cls-24,.cls-25{stroke-width:0.5px;}.cls-21{fill:#fdfbe1;}.cls-22{fill:#e3eef9;}.cls-23{fill:#f6af1e;}.cls-24{fill:#53b44b;}.cls-25{stroke:#040000;}</style></defs><title>diagnosisBG</title><g id="레이어_2" data-name="레이어 2"><g id="레이어_1-2" data-name="레이어 1"><rect class="cls-1" width="594.95" height="840.32"/><text class="cls-2" transform="translate(209.67 72.61) scale(0.98 1)">진단서</text><line class="cls-3" x1="24.06" y1="106.56" x2="163.43" y2="106.56"/><line class="cls-3" x1="24.06" y1="140.35" x2="163.43" y2="140.35"/><line class="cls-3" x1="227.83" y1="135.28" x2="367.2" y2="135.28"/><polygon class="cls-3" points="576.48 158.09 483.56 158.09 483.56 96.43 483.56 66.86 576.48 66.86 576.48 158.09"/><line class="cls-3" x1="483.56" y1="88.43" x2="576.48" y2="88.43"/><text class="cls-4" transform="translate(27.51 187.66)">환자의 성명</text><text class="cls-4" transform="translate(27.51 218.44)">환자의 주소</text><text class="cls-4" transform="translate(29.21 247.66)"><tspan xml:space="preserve">병      </tspan><tspan class="cls-5" x="74" y="0"> </tspan><tspan x="77.94" y="0">명</tspan><tspan x="-1.7" y="35">임상적 진단</tspan><tspan x="-2.03" y="70">최 종 진 단</tspan></text><text class="cls-6" transform="translate(26.18 350.84)">발병일</text><text class="cls-4" transform="translate(305.49 350.42)">진단일</text><text class="cls-7" transform="translate(370.57 507.8)">용도</text><text class="cls-8" transform="translate(25.58 384.87)">향후<tspan x="0" y="37">치료</tspan><tspan x="0" y="74">의견</tspan></text><text class="cls-8" transform="translate(25.58 507.89)">비고</text><text class="cls-7" transform="translate(51.63 625.58)">발행일</text><text class="cls-9" transform="translate(50.92 650.59)">의료기관</text><text class="cls-10" transform="translate(50.58 675.6)">주소 및 명칭</text><text class="cls-10" transform="translate(50.58 700.6)">전화 및 팩스</text><text class="cls-9" transform="translate(50.64 725.61)">면허번호<tspan class="cls-11" x="96" y="0" xml:space="preserve"> 제           호  </tspan></text><text class="cls-4" transform="translate(340.29 725.97)"><tspan xml:space="preserve">의사성명           (인)               </tspan></text><text class="cls-12" transform="translate(53.4 564.61)">위와같이 진단함.</text><line class="cls-3" x1="19.01" y1="534.74" x2="576.03" y2="534.74"/><line class="cls-3" x1="129.13" y1="167.66" x2="129.13" y2="534.82"/><line class="cls-3" x1="244.41" y1="167.07" x2="244.41" y2="199.32"/><line class="cls-3" x1="264.82" y1="166.91" x2="264.82" y2="199.48"/><line class="cls-3" x1="501.31" y1="166.91" x2="501.31" y2="199.48"/><line class="cls-3" x1="329.88" y1="166.91" x2="329.88" y2="199.48"/><line class="cls-3" x1="575.24" y1="331.05" x2="365.05" y2="331.05"/><line class="cls-3" x1="365.05" y1="331.05" x2="20" y2="331.05"/><line class="cls-3" x1="365.05" y1="360.74" x2="20" y2="360.74"/><line class="cls-3" x1="365.05" y1="360.74" x2="575.24" y2="360.74"/><line class="cls-3" x1="20" y1="472.63" x2="365.05" y2="472.63"/><line class="cls-3" x1="575.24" y1="472.63" x2="365.05" y2="472.63"/><line class="cls-3" x1="365.05" y1="331.05" x2="365.05" y2="360.74"/><line class="cls-3" x1="365.05" y1="534.82" x2="365.05" y2="472.63"/><line class="cls-3" x1="365.05" y1="199.28" x2="20" y2="199.28"/><line class="cls-3" x1="20" y1="228.97" x2="365.05" y2="228.97"/><line class="cls-3" x1="481.9" y1="331.25" x2="481.9" y2="228.97"/><line class="cls-3" x1="481.9" y1="167.1" x2="481.9" y2="199.28"/><line class="cls-3" x1="575.24" y1="199.28" x2="481.9" y2="199.28"/><line class="cls-3" x1="481.9" y1="199.28" x2="365.05" y2="199.28"/><line class="cls-3" x1="365.05" y1="228.97" x2="481.9" y2="228.97"/><line class="cls-3" x1="481.9" y1="228.97" x2="575.24" y2="228.97"/><line class="cls-3" x1="365.05" y1="199.28" x2="365.05" y2="167.66"/><line class="cls-3" x1="294.24" y1="331.25" x2="294.24" y2="360.53"/><line class="cls-3" x1="423.48" y1="473.16" x2="423.48" y2="534.54"/><rect class="cls-13" x="19.96" y="167.07" width="555.15" height="572.48"/><text class="cls-4" transform="translate(247.62 180.46)">성<tspan x="0" y="14.4">별</tspan></text><text class="cls-4" transform="translate(485.1 180.46)">연<tspan x="0" y="14.4">령</tspan></text><text class="cls-14" transform="translate(493.82 245.37)">한국질병<tspan x="0" y="14.4">분류번호</tspan></text><text class="cls-15" transform="translate(228.11 132.23)">주민등록번호 :</text><text class="cls-16" transform="translate(491.36 82.85)">원부대조필 인</text><text class="cls-15" transform="translate(25.25 101.76)">병록번호 :</text><text class="cls-15" transform="translate(24.75 136.43)">연번호 :</text><text class="cls-17" transform="translate(402.23 185.88)"><tspan xml:space="preserve">년        월         일</tspan></text><text class="cls-17" transform="translate(196.2 350.2)"><tspan xml:space="preserve">년          월         일</tspan></text><text class="cls-17" transform="translate(474.94 350.2)"><tspan xml:space="preserve">년          월         일</tspan></text><text class="cls-17" transform="translate(272.04 623.81)"><tspan xml:space="preserve">년          월         일</tspan></text><text class="cls-15" transform="translate(518.93 186.77)"><tspan xml:space="preserve">만        세</tspan></text><text class="cls-16" transform="translate(419.28 218.44)"><tspan xml:space="preserve">전     화 :</tspan></text><line class="cls-13" x1="209.42" y1="80.94" x2="385.61" y2="80.94"/><g class="cls-18"><path class="cls-19" d="M279.32,767.32c0,.24.06.48.08.73a.82.82,0,0,1-.69.91,63,63,0,0,1-9.08.68l-1,0a.85.85,0,0,1-.82-.84l0-8.15a.85.85,0,0,1,.84-.85l8,0a.85.85,0,0,1,.85.84v.76a.83.83,0,0,1-.83.84l-4.8,0a.84.84,0,0,0-.84.84l0,3.2a.84.84,0,0,0,.86.83,49.24,49.24,0,0,0,6.56-.5A.85.85,0,0,1,279.32,767.32Zm-2.52,11.76c-4.72,0-7.56-1.52-7.57-4s2.8-4.17,7.51-4.2,7.53,1.49,7.55,4.1S281.49,779.05,276.8,779.08Zm0-5.76c-2.68,0-4.2.64-4.2,1.71s1.54,1.6,4.22,1.58S281,776,281,775,279.44,773.3,276.76,773.32Zm7.26-6.8,0,3.3a.85.85,0,0,1-.84.85h-1.53a.85.85,0,0,1-.85-.84L280.75,759a.84.84,0,0,1,.84-.85h1.53a.84.84,0,0,1,.85.83l0,3.3a.84.84,0,0,0,.85.84H286a.84.84,0,0,1,.84.83v.88a.84.84,0,0,1-.84.85h-1.17A.84.84,0,0,0,284,766.52Z"/><path class="cls-19" d="M307.82,767.21h1.92a.84.84,0,0,1,.84.83v.76a.84.84,0,0,1-.84.85l-17.78.12a.84.84,0,0,1-.85-.84v-.76a.85.85,0,0,1,.83-.85l11.85-.07a.86.86,0,0,0,.83-.7,30.63,30.63,0,0,0,.36-4.32.84.84,0,0,0-.85-.84l-9.64.06a.85.85,0,0,1-.85-.83v-.86a.85.85,0,0,1,.83-.85l12.83-.08a.84.84,0,0,1,.85.84,38.85,38.85,0,0,1-.66,7.15A.32.32,0,0,0,307.82,767.21Zm-14,10.51,0-5.28a.83.83,0,0,1,.83-.85h1.53a.84.84,0,0,1,.85.83l0,2.78a.83.83,0,0,0,.85.83l10.07-.06a.84.84,0,0,1,.84.84v.83a.84.84,0,0,1-.84.84l-13.28.09A.84.84,0,0,1,293.79,777.72Z"/><path class="cls-19" d="M315.93,768.69l-.05-8.49a.84.84,0,0,1,.83-.85h1.51a.84.84,0,0,1,.85.84v1.21a.83.83,0,0,0,.84.83h2a.84.84,0,0,0,.84-.85v-1.21a.84.84,0,0,1,.84-.84h1.51a.83.83,0,0,1,.84.83l.06,8.49a.84.84,0,0,1-.84.85l-8.35,0A.85.85,0,0,1,315.93,768.69Zm9.67,10.12c-4.76,0-7.6-1.54-7.62-4.1s2.8-4.22,7.56-4.25,7.63,1.56,7.65,4.15S330.34,778.78,325.6,778.81Zm-3.69-14.16-2,0a.85.85,0,0,0-.84.84v.71a.84.84,0,0,0,.85.84h2a.85.85,0,0,0,.84-.85v-.71A.85.85,0,0,0,321.91,764.65Zm-.69,10c0,1,1.61,1.65,4.36,1.63s4.38-.67,4.37-1.69-1.61-1.67-4.39-1.66S321.21,773.62,321.22,774.69Zm10.95-4.32h-1.55a.84.84,0,0,1-.85-.83v-1.29a.84.84,0,0,0-.84-.83h-1a.83.83,0,0,1-.85-.83v-.74a.83.83,0,0,1,.83-.84h1a.85.85,0,0,0,.84-.85v-.23a.84.84,0,0,0-.84-.84h-1a.86.86,0,0,1-.85-.84v-.74a.84.84,0,0,1,.83-.84h1a.84.84,0,0,0,.84-.85v-1.13a.84.84,0,0,1,.84-.85h1.55a.84.84,0,0,1,.85.83l.07,10.86A.84.84,0,0,1,332.17,770.37Z"/><path class="cls-19" d="M344.89,774.21v.86a.84.84,0,0,0,.85.83l11.18-.07a.84.84,0,0,1,.84.83v.76a.84.84,0,0,1-.84.85l-14.42.09a.85.85,0,0,1-.85-.83l0-4.48a.85.85,0,0,1,.84-.85h1a.84.84,0,0,0,.84-.84v-.71a.84.84,0,0,0-.87-.83c-1.26,0-2.46.07-3.5.08a.83.83,0,0,1-.83-.7c-.05-.27-.09-.54-.13-.81a.84.84,0,0,1,.82-1c4.76-.06,9.4-.33,12.22-.66a.84.84,0,0,1,.93.79c0,.24,0,.48,0,.72a.85.85,0,0,1-.72.9c-1.22.16-2.58.28-4,.4a.84.84,0,0,0-.78.84l0,2.12a.84.84,0,0,1-.84.85h-.95A.85.85,0,0,0,344.89,774.21Zm1.19-7.65c-3.27,0-5.48-1.58-5.49-3.9s2.17-4,5.43-4.07,5.48,1.63,5.49,4S349.32,766.54,346.08,766.56Zm0-5.65c-1.28,0-2.25.71-2.24,1.7s1,1.63,2.26,1.62,2.25-.65,2.24-1.65S347.3,760.91,346,760.91Zm5.16,9.22,2.23,0a.84.84,0,0,0,.84-.84l-.07-10.74a.83.83,0,0,1,.83-.85h1.51a.84.84,0,0,1,.85.84l.09,14.58a.83.83,0,0,1-.83.84h-1.51a.83.83,0,0,1-.85-.83h0a.84.84,0,0,0-.85-.84l-2.23,0a.86.86,0,0,1-.85-.84V771A.84.84,0,0,1,351.2,770.13Z"/><circle class="cls-19" cx="233.23" cy="763.27" r="1.56"/><path class="cls-19" d="M227.08,766.9a11.92,11.92,0,0,0,8.13,2.05,6.52,6.52,0,0,0,5.24-5.2,1.28,1.28,0,0,0-1.11-1.41,1.31,1.31,0,0,0-1.42,1.11,3.84,3.84,0,0,1-3.39,3,9.46,9.46,0,0,1-5.94-1.61c-1.34-.93-2.86,1.11-1.51,2Z"/><path class="cls-19" d="M232.69,775.65c.52-.55,1-1.14,1.5-1.71a5.54,5.54,0,0,1,1-1.13c.67-.45,1.3.26,1.68.75.58.74,1.1,1.51,1.72,2.23a21.49,21.49,0,0,0,3.49,3.25,1.27,1.27,0,0,0,1.51-2,18.9,18.9,0,0,1-3.25-3.07q-.74-.88-1.41-1.83a13.09,13.09,0,0,0-1-1.42,2.79,2.79,0,0,0-1.73-1,3.09,3.09,0,0,0-2.29.88c-1.21,1.06-2.17,2.39-3.27,3.56a1.29,1.29,0,0,0,.26,1.78A1.32,1.32,0,0,0,232.69,775.65Z"/><circle class="cls-19" cx="256.38" cy="758.4" r="1.37"/><path class="cls-19" d="M262.51,759.7a10.4,10.4,0,0,1-6.18,4,5.71,5.71,0,0,1-5.81-2.85,1.12,1.12,0,0,1,.52-1.49,1.15,1.15,0,0,1,1.49.53,3.37,3.37,0,0,0,3.67,1.56,8.26,8.26,0,0,0,4.48-3c.85-1.14,2.69.12,1.83,1.28Z"/><path class="cls-19" d="M260.3,768.54c-.59-.31-1.15-.66-1.73-1a5.15,5.15,0,0,0-1.17-.65c-.68-.19-1,.58-1.19,1.09-.27.79-.49,1.57-.8,2.34a19.24,19.24,0,0,1-2,3.68,1.11,1.11,0,0,1-1.83-1.27,16.42,16.42,0,0,0,1.84-3.46q.38-.94.66-1.92a12.47,12.47,0,0,1,.45-1.47,2.46,2.46,0,0,1,1.16-1.3,2.77,2.77,0,0,1,2.15.09c1.3.55,2.48,1.38,3.72,2a1.11,1.11,0,1,1-1.27,1.83Z"/><path class="cls-19" d="M249.33,767.63a3.07,3.07,0,0,1-.22.62,16.21,16.21,0,0,1-2.83,4c-.29.32-1,1-1.48,1.54a.57.57,0,0,1-.94-.22c-.21-1-.52-2.35-.58-2.77a18.57,18.57,0,0,1-.23-3.88c.11-2.12,2.3-3.06,4-2.66A2.78,2.78,0,0,1,249.33,767.63Z"/><path class="cls-19" d="M248.35,762.62a3,3,0,0,1-.09.38,14.94,14.94,0,0,1-1.09,2.54c-.13.25-.45.83-.65,1.19a.12.12,0,0,1-.21,0c0-.52-.13-1.5-.14-1.78a17,17,0,0,1,0-2.25c.09-1.25.88-2,1.47-1.86S248.52,761.65,248.35,762.62Z"/><path class="cls-19" d="M249.93,764.52l-.18.18a12,12,0,0,1-1.52,1.13l-.59.37c-.11.06-.26,0-.2-.14.16-.31.37-.7.44-.82a14.43,14.43,0,0,1,.81-1.23c.5-.66,1.2-.86,1.5-.65S250.38,764,249.93,764.52Z"/><path class="cls-19" d="M245.07,763.6a.83.83,0,0,1,.09.16,6.41,6.41,0,0,1,.45,1.21c0,.1.09.32.13.5s-.09.11-.15.06L245,765c-.26-.27-.51-.55-.75-.85-.38-.49-.33-.94-.07-1S244.81,763.19,245.07,763.6Z"/></g><path class="cls-20" d="M279.32,764.32c0,.24.06.48.08.73a.82.82,0,0,1-.69.91,63,63,0,0,1-9.08.68l-1,0a.85.85,0,0,1-.82-.84l0-8.15a.85.85,0,0,1,.84-.85l8,0a.85.85,0,0,1,.85.84v.76a.83.83,0,0,1-.83.84l-4.8,0a.84.84,0,0,0-.84.84l0,3.2a.84.84,0,0,0,.86.83,49.24,49.24,0,0,0,6.56-.5A.85.85,0,0,1,279.32,764.32Zm-2.52,11.76c-4.72,0-7.56-1.52-7.57-4s2.8-4.17,7.51-4.2,7.53,1.49,7.55,4.1S281.49,776.05,276.8,776.08Zm0-5.76c-2.68,0-4.2.64-4.2,1.71s1.54,1.6,4.22,1.58S281,773,281,772,279.44,770.3,276.76,770.32Zm7.26-6.8,0,3.3a.85.85,0,0,1-.84.85h-1.53a.85.85,0,0,1-.85-.84L280.75,756a.84.84,0,0,1,.84-.85h1.53a.84.84,0,0,1,.85.83l0,3.3a.84.84,0,0,0,.85.84H286a.84.84,0,0,1,.84.83v.88a.84.84,0,0,1-.84.85h-1.17A.84.84,0,0,0,284,763.52Z"/><path class="cls-20" d="M307.82,764.21h1.92a.84.84,0,0,1,.84.83v.76a.84.84,0,0,1-.84.85l-17.78.12a.84.84,0,0,1-.85-.84v-.76a.85.85,0,0,1,.83-.85l11.85-.07a.86.86,0,0,0,.83-.7,30.63,30.63,0,0,0,.36-4.32.84.84,0,0,0-.85-.84l-9.64.06a.85.85,0,0,1-.85-.83v-.86a.85.85,0,0,1,.83-.85l12.83-.08a.84.84,0,0,1,.85.84,38.85,38.85,0,0,1-.66,7.15A.32.32,0,0,0,307.82,764.21Zm-14,10.51,0-5.28a.83.83,0,0,1,.83-.85h1.53a.84.84,0,0,1,.85.83l0,2.78a.83.83,0,0,0,.85.83l10.07-.06a.84.84,0,0,1,.84.84v.83a.84.84,0,0,1-.84.84l-13.28.09A.84.84,0,0,1,293.79,774.72Z"/><path class="cls-20" d="M315.93,765.69l-.05-8.49a.84.84,0,0,1,.83-.85h1.51a.84.84,0,0,1,.85.84v1.21a.83.83,0,0,0,.84.83h2a.84.84,0,0,0,.84-.85v-1.21a.84.84,0,0,1,.84-.84h1.51a.83.83,0,0,1,.84.83l.06,8.49a.84.84,0,0,1-.84.85l-8.35,0A.85.85,0,0,1,315.93,765.69Zm9.67,10.12c-4.76,0-7.6-1.54-7.62-4.1s2.8-4.22,7.56-4.25,7.63,1.56,7.65,4.15S330.34,775.78,325.6,775.81Zm-3.69-14.16-2,0a.85.85,0,0,0-.84.84v.71a.84.84,0,0,0,.85.84h2a.85.85,0,0,0,.84-.85v-.71A.85.85,0,0,0,321.91,761.65Zm-.69,10c0,1,1.61,1.65,4.36,1.63s4.38-.67,4.37-1.69-1.61-1.67-4.39-1.66S321.21,770.62,321.22,771.69Zm10.95-4.32h-1.55a.84.84,0,0,1-.85-.83v-1.29a.84.84,0,0,0-.84-.83h-1a.83.83,0,0,1-.85-.83v-.74a.83.83,0,0,1,.83-.84h1a.85.85,0,0,0,.84-.85v-.23a.84.84,0,0,0-.84-.84h-1a.86.86,0,0,1-.85-.84v-.74a.84.84,0,0,1,.83-.84h1a.84.84,0,0,0,.84-.85v-1.13a.84.84,0,0,1,.84-.85h1.55a.84.84,0,0,1,.85.83l.07,10.86A.84.84,0,0,1,332.17,767.37Z"/><path class="cls-20" d="M344.89,771.21v.86a.84.84,0,0,0,.85.83l11.18-.07a.84.84,0,0,1,.84.83v.76a.84.84,0,0,1-.84.85l-14.42.09a.85.85,0,0,1-.85-.83l0-4.48a.85.85,0,0,1,.84-.85h1a.84.84,0,0,0,.84-.84v-.71a.84.84,0,0,0-.87-.83c-1.26,0-2.46.07-3.5.08a.83.83,0,0,1-.83-.7c-.05-.27-.09-.54-.13-.81a.84.84,0,0,1,.82-1c4.76-.06,9.4-.33,12.22-.66a.84.84,0,0,1,.93.79c0,.24,0,.48,0,.72a.85.85,0,0,1-.72.9c-1.22.16-2.58.28-4,.4a.84.84,0,0,0-.78.84l0,2.12a.84.84,0,0,1-.84.85h-.95A.85.85,0,0,0,344.89,771.21Zm1.19-7.65c-3.27,0-5.48-1.58-5.49-3.9s2.17-4,5.43-4.07,5.48,1.63,5.49,4S349.32,763.54,346.08,763.56Zm0-5.65c-1.28,0-2.25.71-2.24,1.7s1,1.63,2.26,1.62,2.25-.65,2.24-1.65S347.3,757.91,346,757.91Zm5.16,9.22,2.23,0a.84.84,0,0,0,.84-.84l-.07-10.74a.83.83,0,0,1,.83-.85h1.51a.84.84,0,0,1,.85.84l.09,14.58a.83.83,0,0,1-.83.84h-1.51a.83.83,0,0,1-.85-.83h0a.84.84,0,0,0-.85-.84l-2.23,0a.86.86,0,0,1-.85-.84V768A.84.84,0,0,1,351.2,767.13Z"/><circle class="cls-21" cx="233.23" cy="760.27" r="1.56"/><path class="cls-21" d="M227.08,763.9a11.92,11.92,0,0,0,8.13,2.05,6.52,6.52,0,0,0,5.24-5.2,1.28,1.28,0,0,0-1.11-1.41,1.31,1.31,0,0,0-1.42,1.11,3.84,3.84,0,0,1-3.39,3,9.46,9.46,0,0,1-5.94-1.61c-1.34-.93-2.86,1.11-1.51,2Z"/><path class="cls-21" d="M232.69,772.65c.52-.55,1-1.14,1.5-1.71a5.54,5.54,0,0,1,1-1.13c.67-.45,1.3.26,1.68.75.58.74,1.1,1.51,1.72,2.23a21.49,21.49,0,0,0,3.49,3.25,1.27,1.27,0,0,0,1.51-2,18.9,18.9,0,0,1-3.25-3.07q-.74-.88-1.41-1.83a13.09,13.09,0,0,0-1-1.42,2.79,2.79,0,0,0-1.73-1,3.09,3.09,0,0,0-2.29.88c-1.21,1.06-2.17,2.39-3.27,3.56a1.29,1.29,0,0,0,.26,1.78A1.32,1.32,0,0,0,232.69,772.65Z"/><circle class="cls-22" cx="256.38" cy="755.4" r="1.37"/><path class="cls-22" d="M262.51,756.7a10.4,10.4,0,0,1-6.18,4,5.71,5.71,0,0,1-5.81-2.85,1.12,1.12,0,0,1,.52-1.49,1.15,1.15,0,0,1,1.49.53,3.37,3.37,0,0,0,3.67,1.56,8.26,8.26,0,0,0,4.48-3c.85-1.14,2.69.12,1.83,1.28Z"/><path class="cls-22" d="M260.3,765.54c-.59-.31-1.15-.66-1.73-1a5.15,5.15,0,0,0-1.17-.65c-.68-.19-1,.58-1.19,1.09-.27.79-.49,1.57-.8,2.34a19.24,19.24,0,0,1-2,3.68,1.11,1.11,0,0,1-1.83-1.27,16.42,16.42,0,0,0,1.84-3.46q.38-.94.66-1.92a12.47,12.47,0,0,1,.45-1.47,2.46,2.46,0,0,1,1.16-1.3,2.77,2.77,0,0,1,2.15.09c1.3.55,2.48,1.38,3.72,2a1.11,1.11,0,1,1-1.27,1.83Z"/><path class="cls-23" d="M249.33,764.63a3.07,3.07,0,0,1-.22.62,16.21,16.21,0,0,1-2.83,4c-.29.32-1,1-1.48,1.54a.57.57,0,0,1-.94-.22c-.21-1-.52-2.35-.58-2.77a18.57,18.57,0,0,1-.23-3.88c.11-2.12,2.3-3.06,4-2.66A2.78,2.78,0,0,1,249.33,764.63Z"/><path class="cls-24" d="M248.35,759.62a3,3,0,0,1-.09.38,14.94,14.94,0,0,1-1.09,2.54c-.13.25-.45.83-.65,1.19a.12.12,0,0,1-.21,0c0-.52-.13-1.5-.14-1.78a17,17,0,0,1,0-2.25c.09-1.25.88-2,1.47-1.86S248.52,758.65,248.35,759.62Z"/><path class="cls-24" d="M249.93,761.52l-.18.18a12,12,0,0,1-1.52,1.13l-.59.37c-.11.06-.26,0-.2-.14.16-.31.37-.7.44-.82a14.43,14.43,0,0,1,.81-1.23c.5-.66,1.2-.86,1.5-.65S250.38,761,249.93,761.52Z"/><path class="cls-24" d="M245.07,760.6a.83.83,0,0,1,.09.16,6.41,6.41,0,0,1,.45,1.21c0,.1.09.32.13.5s-.09.11-.15.06L245,762c-.26-.27-.51-.55-.75-.85-.38-.49-.33-.94-.07-1S244.81,760.19,245.07,760.6Z"/><path class="cls-25" d="M279.32,764.32c0,.24.06.48.08.73a.82.82,0,0,1-.69.91,63,63,0,0,1-9.08.68l-1,0a.85.85,0,0,1-.82-.84l0-8.15a.85.85,0,0,1,.84-.85l8,0a.85.85,0,0,1,.85.84v.76a.83.83,0,0,1-.83.84l-4.8,0a.84.84,0,0,0-.84.84l0,3.2a.84.84,0,0,0,.86.83,49.24,49.24,0,0,0,6.56-.5A.85.85,0,0,1,279.32,764.32Zm-2.52,11.76c-4.72,0-7.56-1.52-7.57-4s2.8-4.17,7.51-4.2,7.53,1.49,7.55,4.1S281.49,776.05,276.8,776.08Zm0-5.76c-2.68,0-4.2.64-4.2,1.71s1.54,1.6,4.22,1.58S281,773,281,772,279.44,770.3,276.76,770.32Zm7.26-6.8,0,3.3a.85.85,0,0,1-.84.85h-1.53a.85.85,0,0,1-.85-.84L280.75,756a.84.84,0,0,1,.84-.85h1.53a.84.84,0,0,1,.85.83l0,3.3a.84.84,0,0,0,.85.84H286a.84.84,0,0,1,.84.83v.88a.84.84,0,0,1-.84.85h-1.17A.84.84,0,0,0,284,763.52Z"/><path class="cls-25" d="M307.82,764.21h1.92a.84.84,0,0,1,.84.83v.76a.84.84,0,0,1-.84.85l-17.78.12a.84.84,0,0,1-.85-.84v-.76a.85.85,0,0,1,.83-.85l11.85-.07a.86.86,0,0,0,.83-.7,30.63,30.63,0,0,0,.36-4.32.84.84,0,0,0-.85-.84l-9.64.06a.85.85,0,0,1-.85-.83v-.86a.85.85,0,0,1,.83-.85l12.83-.08a.84.84,0,0,1,.85.84,38.85,38.85,0,0,1-.66,7.15A.32.32,0,0,0,307.82,764.21Zm-14,10.51,0-5.28a.83.83,0,0,1,.83-.85h1.53a.84.84,0,0,1,.85.83l0,2.78a.83.83,0,0,0,.85.83l10.07-.06a.84.84,0,0,1,.84.84v.83a.84.84,0,0,1-.84.84l-13.28.09A.84.84,0,0,1,293.79,774.72Z"/><path class="cls-25" d="M315.93,765.69l-.05-8.49a.84.84,0,0,1,.83-.85h1.51a.84.84,0,0,1,.85.84v1.21a.83.83,0,0,0,.84.83h2a.84.84,0,0,0,.84-.85v-1.21a.84.84,0,0,1,.84-.84h1.51a.83.83,0,0,1,.84.83l.06,8.49a.84.84,0,0,1-.84.85l-8.35,0A.85.85,0,0,1,315.93,765.69Zm9.67,10.12c-4.76,0-7.6-1.54-7.62-4.1s2.8-4.22,7.56-4.25,7.63,1.56,7.65,4.15S330.34,775.78,325.6,775.81Zm-3.69-14.16-2,0a.85.85,0,0,0-.84.84v.71a.84.84,0,0,0,.85.84h2a.85.85,0,0,0,.84-.85v-.71A.85.85,0,0,0,321.91,761.65Zm-.69,10c0,1,1.61,1.65,4.36,1.63s4.38-.67,4.37-1.69-1.61-1.67-4.39-1.66S321.21,770.62,321.22,771.69Zm10.95-4.32h-1.55a.84.84,0,0,1-.85-.83v-1.29a.84.84,0,0,0-.84-.83h-1a.83.83,0,0,1-.85-.83v-.74a.83.83,0,0,1,.83-.84h1a.85.85,0,0,0,.84-.85v-.23a.84.84,0,0,0-.84-.84h-1a.86.86,0,0,1-.85-.84v-.74a.84.84,0,0,1,.83-.84h1a.84.84,0,0,0,.84-.85v-1.13a.84.84,0,0,1,.84-.85h1.55a.84.84,0,0,1,.85.83l.07,10.86A.84.84,0,0,1,332.17,767.37Z"/><path class="cls-25" d="M344.89,771.21v.86a.84.84,0,0,0,.85.83l11.18-.07a.84.84,0,0,1,.84.83v.76a.84.84,0,0,1-.84.85l-14.42.09a.85.85,0,0,1-.85-.83l0-4.48a.85.85,0,0,1,.84-.85h1a.84.84,0,0,0,.84-.84v-.71a.84.84,0,0,0-.87-.83c-1.26,0-2.46.07-3.5.08a.83.83,0,0,1-.83-.7c-.05-.27-.09-.54-.13-.81a.84.84,0,0,1,.82-1c4.76-.06,9.4-.33,12.22-.66a.84.84,0,0,1,.93.79c0,.24,0,.48,0,.72a.85.85,0,0,1-.72.9c-1.22.16-2.58.28-4,.4a.84.84,0,0,0-.78.84l0,2.12a.84.84,0,0,1-.84.85h-.95A.85.85,0,0,0,344.89,771.21Zm1.19-7.65c-3.27,0-5.48-1.58-5.49-3.9s2.17-4,5.43-4.07,5.48,1.63,5.49,4S349.32,763.54,346.08,763.56Zm0-5.65c-1.28,0-2.25.71-2.24,1.7s1,1.63,2.26,1.62,2.25-.65,2.24-1.65S347.3,757.91,346,757.91Zm5.16,9.22,2.23,0a.84.84,0,0,0,.84-.84l-.07-10.74a.83.83,0,0,1,.83-.85h1.51a.84.84,0,0,1,.85.84l.09,14.58a.83.83,0,0,1-.83.84h-1.51a.83.83,0,0,1-.85-.83h0a.84.84,0,0,0-.85-.84l-2.23,0a.86.86,0,0,1-.85-.84V768A.84.84,0,0,1,351.2,767.13Z"/><circle class="cls-25" cx="233.23" cy="760.27" r="1.56"/><path class="cls-25" d="M227.08,763.9a11.92,11.92,0,0,0,8.13,2.05,6.52,6.52,0,0,0,5.24-5.2,1.28,1.28,0,0,0-1.11-1.41,1.31,1.31,0,0,0-1.42,1.11,3.84,3.84,0,0,1-3.39,3,9.46,9.46,0,0,1-5.94-1.61c-1.34-.93-2.86,1.11-1.51,2Z"/><path class="cls-25" d="M232.69,772.65c.52-.55,1-1.14,1.5-1.71a5.54,5.54,0,0,1,1-1.13c.67-.45,1.3.26,1.68.75.58.74,1.1,1.51,1.72,2.23a21.49,21.49,0,0,0,3.49,3.25,1.27,1.27,0,0,0,1.51-2,18.9,18.9,0,0,1-3.25-3.07q-.74-.88-1.41-1.83a13.09,13.09,0,0,0-1-1.42,2.79,2.79,0,0,0-1.73-1,3.09,3.09,0,0,0-2.29.88c-1.21,1.06-2.17,2.39-3.27,3.56a1.29,1.29,0,0,0,.26,1.78A1.32,1.32,0,0,0,232.69,772.65Z"/><circle class="cls-25" cx="256.38" cy="755.4" r="1.37"/><path class="cls-25" d="M262.51,756.7a10.4,10.4,0,0,1-6.18,4,5.71,5.71,0,0,1-5.81-2.85,1.12,1.12,0,0,1,.52-1.49,1.15,1.15,0,0,1,1.49.53,3.37,3.37,0,0,0,3.67,1.56,8.26,8.26,0,0,0,4.48-3c.85-1.14,2.69.12,1.83,1.28Z"/><path class="cls-25" d="M260.3,765.54c-.59-.31-1.15-.66-1.73-1a5.15,5.15,0,0,0-1.17-.65c-.68-.19-1,.58-1.19,1.09-.27.79-.49,1.57-.8,2.34a19.24,19.24,0,0,1-2,3.68,1.11,1.11,0,0,1-1.83-1.27,16.42,16.42,0,0,0,1.84-3.46q.38-.94.66-1.92a12.47,12.47,0,0,1,.45-1.47,2.46,2.46,0,0,1,1.16-1.3,2.77,2.77,0,0,1,2.15.09c1.3.55,2.48,1.38,3.72,2a1.11,1.11,0,1,1-1.27,1.83Z"/><path class="cls-25" d="M249.33,764.63a3.07,3.07,0,0,1-.22.62,16.21,16.21,0,0,1-2.83,4c-.29.32-1,1-1.48,1.54a.57.57,0,0,1-.94-.22c-.21-1-.52-2.35-.58-2.77a18.57,18.57,0,0,1-.23-3.88c.11-2.12,2.3-3.06,4-2.66A2.78,2.78,0,0,1,249.33,764.63Z"/><path class="cls-25" d="M248.35,759.62a3,3,0,0,1-.09.38,14.94,14.94,0,0,1-1.09,2.54c-.13.25-.45.83-.65,1.19a.12.12,0,0,1-.21,0c0-.52-.13-1.5-.14-1.78a17,17,0,0,1,0-2.25c.09-1.25.88-2,1.47-1.86S248.52,758.65,248.35,759.62Z"/><path class="cls-25" d="M249.93,761.52l-.18.18a12,12,0,0,1-1.52,1.13l-.59.37c-.11.06-.26,0-.2-.14.16-.31.37-.7.44-.82a14.43,14.43,0,0,1,.81-1.23c.5-.66,1.2-.86,1.5-.65S250.38,761,249.93,761.52Z"/><path class="cls-25" d="M245.07,760.6a.83.83,0,0,1,.09.16,6.41,6.41,0,0,1,.45,1.21c0,.1.09.32.13.5s-.09.11-.15.06L245,762c-.26-.27-.51-.55-.75-.85-.38-.49-.33-.94-.07-1S244.81,760.19,245.07,760.6Z"/><line class="cls-3" x1="51.32" y1="729.57" x2="293.98" y2="729.57"/><line class="cls-3" x1="338.2" y1="729.57" x2="546.59" y2="729.57"/></g></g></svg>