<svg xmlns="http://www.w3.org/2000/svg" viewBox="0 0 425 263"><defs><style>.cls-1{fill:#e4f9f5;}.cls-2{fill:#ea0000;}.cls-3{fill:#fffac7;}.cls-4{fill:#c1c1c1;}.cls-5{fill:#fff;}.cls-6{fill:#ffe969;}</style></defs><title>login_member_bg</title><g id="레이어_2" data-name="레이어 2"><g id="레이어_1-2" data-name="레이어 1"><path class="cls-1" d="M194.88,1.39c-8.55,0-15.48,6.41-15.48,14.31V34.5L0,35V263H360V1.39Z"/><polygon class="cls-2" points="231.28 19.71 221.5 19.71 221.5 9.92 215.98 9.92 215.98 19.71 206.2 19.71 206.2 25.22 215.98 25.22 215.98 35.01 221.5 35.01 221.5 25.22 231.28 25.22 231.28 19.71"/><path class="cls-3" d="M179.54,33l-.95-33H14.2C6.63,0,.5,6.41.5,14.31V262h360V33Z"/><rect class="cls-4" x="31.64" y="9.92" width="31.26" height="27.85" rx="3.18"/><ellipse class="cls-5" cx="47.27" cy="20.29" rx="6.54" ry="5.83"/><path class="cls-5" d="M56.12,37.78H38.42a3.18,3.18,0,0,1-2.63-5c2.22-3.21,6.53-5.39,11.48-5.39s9.25,2.18,11.47,5.39A3.18,3.18,0,0,1,56.12,37.78Z"/><polygon class="cls-6" points="425 65 345 65 345 36 425 36 416 50.5 425 65"/></g></g></svg>