<svg xmlns="http://www.w3.org/2000/svg" viewBox="0 0 262.88 63.06"><defs><style>.cls-1,.cls-3,.cls-5{font-size:54.58px;font-family:D2CodingligatureBold, D2Coding ligature;}.cls-1{fill:#90c05f;}.cls-2{opacity:0.5;}.cls-3,.cls-8{fill:#f14e24;}.cls-12,.cls-4,.cls-5,.cls-9{fill:none;}.cls-4{stroke:#d10115;stroke-width:2px;}.cls-5,.cls-9{stroke:#ffe99f;}.cls-6{opacity:0.62;}.cls-7{fill:#d10115;}.cls-12,.cls-9{stroke-miterlimit:10;}.cls-10{fill:#ed1c24;}.cls-11{fill:#ffe99f;}.cls-12{stroke:#ed1c24;}</style></defs><title>logo</title><g id="레이어_2" data-name="레이어 2"><g id="레이어_1-2" data-name="레이어 1"><text class="cls-1" transform="translate(50.02 46.89) scale(0.97 1)">당근병원</text><g class="cls-2"><path d="M82,60.07a27.6,27.6,0,0,1-7.12-.82A17.34,17.34,0,0,1,69.72,57a9.65,9.65,0,0,1-3.14-3.34,8.65,8.65,0,0,1-1-4.14,8.77,8.77,0,0,1,1-4.2A9.79,9.79,0,0,1,69.72,42a16.86,16.86,0,0,1,5.15-2.26A28,28,0,0,1,82,38.91a28.37,28.37,0,0,1,7.14.82A16.94,16.94,0,0,1,94.31,42a10.05,10.05,0,0,1,3.16,3.36,8.57,8.57,0,0,1,1.07,4.2,8.46,8.46,0,0,1-1.07,4.14A9.91,9.91,0,0,1,94.31,57a17.43,17.43,0,0,1-5.18,2.22A27.92,27.92,0,0,1,82,60.07Zm0-15.5A21.21,21.21,0,0,0,77.5,45a9.68,9.68,0,0,0-3,1.1,4.68,4.68,0,0,0-1.64,1.61,3.74,3.74,0,0,0-.52,1.86,3.6,3.6,0,0,0,.52,1.83,4.56,4.56,0,0,0,1.64,1.55,10.41,10.41,0,0,0,3,1.1,23.13,23.13,0,0,0,9,0,11.13,11.13,0,0,0,3-1.1,4.55,4.55,0,0,0,1.66-1.55,3.6,3.6,0,0,0,.52-1.83,3.74,3.74,0,0,0-.52-1.86,4.79,4.79,0,0,0-1.67-1.61,10,10,0,0,0-3-1.1A21.35,21.35,0,0,0,82,44.57Zm9-5.18-.1-.1V9l.1-.1h6.53l.1.1v10.6h7.28l.1.1v5.68l-.1.1H97.59V39.29l-.1.1ZM61.07,34.91l-.1-.1V11.23l.1-.1H84.8l.1.1v5.51l-.1.1h-17v12.3h4.73a64.7,64.7,0,0,0,9-.6c2.83-.39,5.55-.81,8.06-1.25l.12.1v5.4l-.08.1c-1.16.29-2.5.56-4,.79s-3,.45-4.62.63-3.27.33-5,.44-3.37.16-5,.16Z"/><path d="M118.62,58.93l-.1-.1v-17l.1-.1h6.48l.1.1V53h26.39l.1.1v5.74l-.1.1Zm-7.22-22-.1-.1V31.1l.1-.1h31.13c.34-2.73.63-5.37.83-7.82s.32-4.72.32-6.72H118l-.1-.1V10.63l.1-.1h32.5l.1.1c-.08,3.84-.23,7.55-.46,11s-.48,6.57-.76,9.36h8.49l.1.1v5.68l-.1.1Z"/><path d="M189.76,60.07a31.07,31.07,0,0,1-7.22-.76,18.46,18.46,0,0,1-5.23-2.09,9.45,9.45,0,0,1-3.19-3.12,7.53,7.53,0,0,1,0-7.77,9.23,9.23,0,0,1,3.19-3.14,17.89,17.89,0,0,1,5.23-2.09,34.33,34.33,0,0,1,14.46,0,17.87,17.87,0,0,1,5.26,2.09,9.51,9.51,0,0,1,3.22,3.14,7.41,7.41,0,0,1,0,7.77,9.84,9.84,0,0,1-3.22,3.12A18.43,18.43,0,0,1,197,59.31,31.37,31.37,0,0,1,189.76,60.07Zm0-14.24a23.35,23.35,0,0,0-4.6.38,11.36,11.36,0,0,0-3.08,1,4.35,4.35,0,0,0-1.69,1.41,2.92,2.92,0,0,0-.51,1.58,2.87,2.87,0,0,0,.51,1.58,4.59,4.59,0,0,0,1.69,1.45,11.2,11.2,0,0,0,3.08,1,24.15,24.15,0,0,0,4.6.38,23.74,23.74,0,0,0,4.57-.38,11.2,11.2,0,0,0,3-1,4.89,4.89,0,0,0,1.72-1.45,2.58,2.58,0,0,0,0-3.16,4.63,4.63,0,0,0-1.72-1.41,11.23,11.23,0,0,0-3-1A23,23,0,0,0,189.76,45.83Zm9.55-5.24-.1-.1V32H191v4.27l-.1.1H167.78l-.1-.1V10.47l.1-.1h6.48l.1.1v7.59h10.15V10.47l.1-.1h6.32l.1.1v6.77h8.18V9l.1-.1h6.59l.1.1v31.5l-.1.1Zm-14.8-10V23.78H174.36v6.84Zm14.76-4.1V22.63H191v3.89Z"/><path d="M226.71,58.71l-.1-.1V46.49l.1-.1h6.37l.1.1v6.34H261l.1.1v5.68l-.1.1Zm26.92-9.66-.1-.1V44.52H243.7l-.1-.1V39.29l.1-.1h9.83V9l.1-.1h6.53l.1.1V49l-.1.1ZM232.71,45.5l-.1-.1v-8c-1,0-2,.07-2.9.08l-2.84,0h-7.75l-.1-.1V32l.1-.1h7.64c1.83,0,3.81,0,5.89-.08s4.25-.15,6.4-.27,4.36-.29,6.5-.47,4.21-.4,6.15-.65l.11.1v5.29l-.08.1c-1.91.29-3.95.54-6.09.74s-4.3.37-6.46.51V45.4l-.1.1ZM236,30a17.48,17.48,0,0,1-5.23-.74,11.59,11.59,0,0,1-4-2.12,9.44,9.44,0,0,1-3.41-7.39,9.58,9.58,0,0,1,.89-4.14,9.34,9.34,0,0,1,2.52-3.25,11.26,11.26,0,0,1,4-2.12A17.16,17.16,0,0,1,236,9.49a17,17,0,0,1,5.21.75,11.82,11.82,0,0,1,4,2.11,9.76,9.76,0,0,1,2.58,3.26,9.85,9.85,0,0,1,0,8.27,9.76,9.76,0,0,1-2.58,3.26,12,12,0,0,1-4,2.12A17.3,17.3,0,0,1,236,30Zm0-15.12a8.05,8.05,0,0,0-2.86.43,4.72,4.72,0,0,0-1.77,1.12,3.88,3.88,0,0,0-.9,1.57,6,6,0,0,0,0,3.49,3.82,3.82,0,0,0,.9,1.57,4.64,4.64,0,0,0,1.77,1.12,8.05,8.05,0,0,0,2.86.43,8.21,8.21,0,0,0,2.88-.43,4.62,4.62,0,0,0,1.8-1.12,4.2,4.2,0,0,0,.93-1.57,5.4,5.4,0,0,0,0-3.49,4.2,4.2,0,0,0-.93-1.57,4.62,4.62,0,0,0-1.8-1.12A8.21,8.21,0,0,0,236,14.88Z"/><path d="M77,55.07a27.6,27.6,0,0,1-7.12-.82A17.34,17.34,0,0,1,64.72,52a9.65,9.65,0,0,1-3.14-3.34,8.65,8.65,0,0,1-1-4.14,8.77,8.77,0,0,1,1-4.2A9.79,9.79,0,0,1,64.72,37a16.86,16.86,0,0,1,5.15-2.26A28,28,0,0,1,77,33.91a28.37,28.37,0,0,1,7.14.82A16.94,16.94,0,0,1,89.31,37a10.05,10.05,0,0,1,3.16,3.36,8.57,8.57,0,0,1,1.07,4.2,8.46,8.46,0,0,1-1.07,4.14A9.91,9.91,0,0,1,89.31,52a17.43,17.43,0,0,1-5.18,2.22A27.92,27.92,0,0,1,77,55.07Zm0-15.5A21.21,21.21,0,0,0,72.5,40a9.68,9.68,0,0,0-3,1.1,4.68,4.68,0,0,0-1.64,1.61,3.74,3.74,0,0,0-.52,1.86,3.6,3.6,0,0,0,.52,1.83,4.56,4.56,0,0,0,1.64,1.55,10.41,10.41,0,0,0,3,1.1,23.13,23.13,0,0,0,9,0,11.13,11.13,0,0,0,3-1.1,4.55,4.55,0,0,0,1.66-1.55,3.6,3.6,0,0,0,.52-1.83,3.74,3.74,0,0,0-.52-1.86,4.79,4.79,0,0,0-1.67-1.61,10,10,0,0,0-3-1.1A21.35,21.35,0,0,0,77,39.57Zm9-5.18-.1-.1V4l.1-.1h6.53l.1.1v10.6h7.28l.1.1v5.68l-.1.1H92.59V34.29l-.1.1ZM56.07,29.91l-.1-.1V6.23l.1-.1H79.8l.1.1v5.51l-.1.1h-17v12.3h4.73a64.7,64.7,0,0,0,9-.6c2.83-.39,5.55-.81,8.06-1.25l.12.1v5.4l-.08.1c-1.16.29-2.5.56-4,.79s-3,.45-4.62.63-3.27.33-5,.44-3.37.16-5,.16Z"/><path d="M113.62,53.93l-.1-.1v-17l.1-.1h6.48l.1.1V48h26.39l.1.1v5.74l-.1.1Zm-7.22-22-.1-.1V26.1l.1-.1h31.13c.34-2.73.63-5.37.83-7.82s.32-4.72.32-6.72H113l-.1-.1V5.63l.1-.1h32.5l.1.1c-.08,3.84-.23,7.55-.46,11s-.48,6.57-.76,9.36h8.49l.1.1v5.68l-.1.1Z"/><path d="M184.76,55.07a31.07,31.07,0,0,1-7.22-.76,18.46,18.46,0,0,1-5.23-2.09,9.45,9.45,0,0,1-3.19-3.12,7.53,7.53,0,0,1,0-7.77,9.23,9.23,0,0,1,3.19-3.14,17.89,17.89,0,0,1,5.23-2.09,34.33,34.33,0,0,1,14.46,0,17.87,17.87,0,0,1,5.26,2.09,9.51,9.51,0,0,1,3.22,3.14,7.41,7.41,0,0,1,0,7.77,9.84,9.84,0,0,1-3.22,3.12A18.43,18.43,0,0,1,192,54.31,31.37,31.37,0,0,1,184.76,55.07Zm0-14.24a23.35,23.35,0,0,0-4.6.38,11.36,11.36,0,0,0-3.08,1,4.35,4.35,0,0,0-1.69,1.41,2.92,2.92,0,0,0-.51,1.58,2.87,2.87,0,0,0,.51,1.58,4.59,4.59,0,0,0,1.69,1.45,11.2,11.2,0,0,0,3.08,1,24.15,24.15,0,0,0,4.6.38,23.74,23.74,0,0,0,4.57-.38,11.2,11.2,0,0,0,3-1,4.89,4.89,0,0,0,1.72-1.45,2.58,2.58,0,0,0,0-3.16,4.63,4.63,0,0,0-1.72-1.41,11.23,11.23,0,0,0-3-1A23,23,0,0,0,184.76,40.83Zm9.55-5.24-.1-.1V27H186v4.27l-.1.1H162.78l-.1-.1V5.47l.1-.1h6.48l.1.1v7.59h10.15V5.47l.1-.1h6.32l.1.1v6.77h8.18V4l.1-.1h6.59l.1.1v31.5l-.1.1Zm-14.8-10V18.78H169.36v6.84Zm14.76-4.1V17.63H186v3.89Z"/><path d="M221.71,53.71l-.1-.1V41.49l.1-.1h6.37l.1.1v6.34H256l.1.1v5.68l-.1.1Zm26.92-9.66-.1-.1V39.52H238.7l-.1-.1V34.29l.1-.1h9.83V4l.1-.1h6.53l.1.1V44l-.1.1ZM227.71,40.5l-.1-.1v-8c-1,0-2,.07-2.9.08l-2.84,0h-7.75l-.1-.1V27l.1-.1h7.64c1.83,0,3.81,0,5.89-.08s4.25-.15,6.4-.27,4.36-.29,6.5-.47,4.21-.4,6.15-.65l.11.1v5.29l-.08.1c-1.91.29-3.95.54-6.09.74s-4.3.37-6.46.51V40.4l-.1.1ZM231,25a17.48,17.48,0,0,1-5.23-.74,11.59,11.59,0,0,1-4-2.12,9.44,9.44,0,0,1-3.41-7.39,9.58,9.58,0,0,1,.89-4.14,9.34,9.34,0,0,1,2.52-3.25,11.26,11.26,0,0,1,4-2.12A17.16,17.16,0,0,1,231,4.49a17,17,0,0,1,5.21.75,11.82,11.82,0,0,1,4,2.11,9.76,9.76,0,0,1,2.58,3.26,9.45,9.45,0,0,1,.91,4.14,9.4,9.4,0,0,1-.91,4.13,9.76,9.76,0,0,1-2.58,3.26,12,12,0,0,1-4,2.12A17.3,17.3,0,0,1,231,25Zm0-15.12a8.05,8.05,0,0,0-2.86.43,4.72,4.72,0,0,0-1.77,1.12,3.88,3.88,0,0,0-.9,1.57,6,6,0,0,0,0,3.49,3.82,3.82,0,0,0,.9,1.57,4.64,4.64,0,0,0,1.77,1.12,8.05,8.05,0,0,0,2.86.43,8.21,8.21,0,0,0,2.88-.43,4.62,4.62,0,0,0,1.8-1.12,4.2,4.2,0,0,0,.93-1.57,5.4,5.4,0,0,0,0-3.49,4.2,4.2,0,0,0-.93-1.57,4.62,4.62,0,0,0-1.8-1.12A8.21,8.21,0,0,0,231,9.88Z"/></g><text class="cls-3" transform="translate(50.02 46.89) scale(0.97 1)">당근병원</text><path class="cls-4" d="M78.19,56.37a28.15,28.15,0,0,1-7.14-.82,17.62,17.62,0,0,1-5.19-2.24,9.74,9.74,0,0,1-3.17-3.37,8.75,8.75,0,0,1-1.06-4.19,8.87,8.87,0,0,1,1.06-4.25,10.09,10.09,0,0,1,3.17-3.4,17.12,17.12,0,0,1,5.19-2.26A27.68,27.68,0,0,1,78.19,35a28,28,0,0,1,7.16.83,16.92,16.92,0,0,1,5.21,2.26,10.2,10.2,0,0,1,3.2,3.4,8.66,8.66,0,0,1,1.08,4.25,8.55,8.55,0,0,1-1.08,4.19,9.93,9.93,0,0,1-3.2,3.37,17.4,17.4,0,0,1-5.21,2.24A28.48,28.48,0,0,1,78.19,56.37Zm0-15.5a21.08,21.08,0,0,0-4.47.41,9.33,9.33,0,0,0-2.94,1.09,4.46,4.46,0,0,0-1.6,1.57,3.44,3.44,0,0,0,0,3.59A4.45,4.45,0,0,0,70.78,49a10.73,10.73,0,0,0,2.94,1.1,23.4,23.4,0,0,0,8.93,0,11.18,11.18,0,0,0,3-1.1,4.41,4.41,0,0,0,1.62-1.51,3.44,3.44,0,0,0,.51-1.78,3.55,3.55,0,0,0-.51-1.81,4.41,4.41,0,0,0-1.63-1.57,9.66,9.66,0,0,0-3-1.09A21.15,21.15,0,0,0,78.19,40.87Zm9-5.18-.2-.2V5.19l.2-.2h6.53l.2.2v10.5h7.18l.2.2v5.68l-.2.2H93.89V35.49l-.2.2ZM57.27,31.21l-.2-.2V7.43l.2-.2H81l.2.2v5.51l-.2.2H64.11v12.1h4.63a64.41,64.41,0,0,0,8.94-.6c2.84-.39,5.55-.81,8.06-1.25l.24.2V29l-.15.19c-1.17.3-2.51.56-4,.8s-3,.45-4.63.63-3.27.33-5,.44-3.37.16-5,.16Z"/><path class="cls-4" d="M114.82,55.23l-.2-.2v-17l.2-.2h6.48l.2.2v11h26.29l.2.2V55l-.2.2Zm-7.22-22-.2-.2V27.3l.2-.2h31c.34-2.7.62-5.3.82-7.73s.32-4.64.32-6.61H114.23l-.2-.2V6.83l.2-.2h32.5l.2.2c-.08,3.85-.23,7.55-.46,11s-.47,6.5-.75,9.26h8.38l.2.2V33l-.2.2Z"/><path class="cls-4" d="M186,56.37a30.68,30.68,0,0,1-7.24-.77,17.87,17.87,0,0,1-5.26-2.1,9.48,9.48,0,0,1-3.23-3.15,7.65,7.65,0,0,1,0-7.87,9.55,9.55,0,0,1,3.23-3.18,17.87,17.87,0,0,1,5.26-2.1,30.62,30.62,0,0,1,7.24-.77,31.06,31.06,0,0,1,7.27.77,18,18,0,0,1,5.28,2.1,9.71,9.71,0,0,1,3.25,3.18,7.47,7.47,0,0,1,0,7.87,9.73,9.73,0,0,1-3.25,3.15,17.9,17.9,0,0,1-5.28,2.1A31.12,31.12,0,0,1,186,56.37Zm0-14.24a24.08,24.08,0,0,0-4.58.37,11.34,11.34,0,0,0-3,1,4.23,4.23,0,0,0-1.65,1.37,2.59,2.59,0,0,0,0,3.06,4.45,4.45,0,0,0,1.65,1.41,11,11,0,0,0,3,1,23.21,23.21,0,0,0,4.58.38,22.75,22.75,0,0,0,4.55-.38,11,11,0,0,0,3-1,4.89,4.89,0,0,0,1.69-1.41,2.78,2.78,0,0,0,.52-1.53,2.75,2.75,0,0,0-.52-1.52,4.61,4.61,0,0,0-1.68-1.39,12,12,0,0,0-3-1A23.6,23.6,0,0,0,186,42.13Zm9.55-5.24-.2-.2V28.26h-8v4.17l-.2.2H164l-.2-.2V6.67l.2-.2h6.48l.2.2v7.49h10V6.67l.2-.2h6.32l.2.2v6.67h8V5.19l.2-.2h6.59l.2.2v31.5l-.2.2Zm-14.9-10.17V20.08h-10v6.64Zm14.76-4.1V18.93h-8v3.69Z"/><path class="cls-4" d="M222.91,55l-.2-.2V42.69l.2-.2h6.37l.2.2v6.24h27.67l.2.2v5.68l-.2.2Zm26.92-9.66-.2-.2V40.82H239.9l-.2-.2V35.49l.2-.2h9.73V5.19l.2-.2h6.53l.2.2v40l-.2.2ZM228.91,41.8l-.2-.2V33.73c-1,0-1.89.06-2.8.07l-2.84,0h-7.75l-.2-.2V28.17l.2-.2H223c1.83,0,3.81,0,5.89-.08s4.25-.15,6.39-.27,4.36-.29,6.5-.47,4.21-.4,6.15-.65l.22.2V32l-.17.2c-1.9.29-3.95.54-6.09.74s-4.24.37-6.37.51V41.6l-.2.2Zm3.29-15.5a17.36,17.36,0,0,1-5.26-.75,11.74,11.74,0,0,1-4-2.14A9.54,9.54,0,0,1,219.47,16a9.54,9.54,0,0,1,3.44-7.47,11.74,11.74,0,0,1,4-2.14,17.68,17.68,0,0,1,5.26-.75,17.5,17.5,0,0,1,5.24.75,12.07,12.07,0,0,1,4,2.14,9.9,9.9,0,0,1,2.6,3.28A9.53,9.53,0,0,1,245,16a9.52,9.52,0,0,1-.92,4.18,9.8,9.8,0,0,1-2.6,3.28,11.89,11.89,0,0,1-4,2.14A17.18,17.18,0,0,1,232.2,26.3Zm0-15.12a8,8,0,0,0-2.82.42,4.56,4.56,0,0,0-1.73,1.1,3.83,3.83,0,0,0-.89,1.53,6.07,6.07,0,0,0-.25,1.72,6,6,0,0,0,.25,1.71,3.76,3.76,0,0,0,.89,1.53,4.56,4.56,0,0,0,1.73,1.1,8,8,0,0,0,2.82.42,8.28,8.28,0,0,0,2.85-.42,4.62,4.62,0,0,0,1.76-1.1,4.18,4.18,0,0,0,.91-1.53,5.39,5.39,0,0,0,0-3.43,4.27,4.27,0,0,0-.91-1.53,4.7,4.7,0,0,0-1.76-1.1A8.28,8.28,0,0,0,232.2,11.18Z"/><path class="cls-4" d="M77.89,56.07a28.15,28.15,0,0,1-7.14-.82A17.62,17.62,0,0,1,65.56,53a9.74,9.74,0,0,1-3.17-3.37,8.75,8.75,0,0,1-1.06-4.19,8.87,8.87,0,0,1,1.06-4.25,10.09,10.09,0,0,1,3.17-3.4,17.12,17.12,0,0,1,5.19-2.26,27.68,27.68,0,0,1,7.14-.83,28,28,0,0,1,7.16.83,16.92,16.92,0,0,1,5.21,2.26,10.2,10.2,0,0,1,3.2,3.4,8.66,8.66,0,0,1,1.08,4.25,8.55,8.55,0,0,1-1.08,4.19A9.93,9.93,0,0,1,90.26,53a17.4,17.4,0,0,1-5.21,2.24A28.48,28.48,0,0,1,77.89,56.07Zm0-15.5a21.08,21.08,0,0,0-4.47.41,9.33,9.33,0,0,0-2.94,1.09,4.46,4.46,0,0,0-1.6,1.57,3.44,3.44,0,0,0,0,3.59,4.45,4.45,0,0,0,1.61,1.51,10.73,10.73,0,0,0,2.94,1.1,23.4,23.4,0,0,0,8.93,0,11.18,11.18,0,0,0,3-1.1A4.41,4.41,0,0,0,87,47.23a3.44,3.44,0,0,0,.51-1.78A3.55,3.55,0,0,0,87,43.64a4.41,4.41,0,0,0-1.63-1.57,9.66,9.66,0,0,0-3-1.09A21.15,21.15,0,0,0,77.89,40.57Zm9-5.18-.2-.2V4.89l.2-.2h6.53l.2.2v10.5h7.18l.2.2v5.68l-.2.2H93.59V35.19l-.2.2ZM57,30.91l-.2-.2V7.13l.2-.2H80.7l.2.2v5.51l-.2.2H63.81v12.1h4.63a64.41,64.41,0,0,0,8.94-.6c2.84-.39,5.55-.81,8.06-1.25l.24.2v5.4l-.15.19c-1.17.3-2.51.56-4,.8s-3,.45-4.63.63-3.27.33-5,.44-3.37.16-5,.16Z"/><path class="cls-4" d="M114.52,54.93l-.2-.2v-17l.2-.2H121l.2.2v11h26.29l.2.2v5.74l-.2.2Zm-7.22-22-.2-.2V27l.2-.2h31c.34-2.7.62-5.3.82-7.73s.32-4.64.32-6.61H113.93l-.2-.2V6.53l.2-.2h32.5l.2.2c-.08,3.85-.23,7.55-.46,11s-.47,6.5-.75,9.26h8.38l.2.2v5.68l-.2.2Z"/><path class="cls-4" d="M185.66,56.07a30.68,30.68,0,0,1-7.24-.77,17.87,17.87,0,0,1-5.26-2.1,9.48,9.48,0,0,1-3.23-3.15,7.65,7.65,0,0,1,0-7.87A9.55,9.55,0,0,1,173.16,39a17.87,17.87,0,0,1,5.26-2.1,30.62,30.62,0,0,1,7.24-.77,31.06,31.06,0,0,1,7.27.77,18,18,0,0,1,5.28,2.1,9.71,9.71,0,0,1,3.25,3.18,7.47,7.47,0,0,1,0,7.87,9.73,9.73,0,0,1-3.25,3.15,17.9,17.9,0,0,1-5.28,2.1A31.12,31.12,0,0,1,185.66,56.07Zm0-14.24a24.08,24.08,0,0,0-4.58.37,11.34,11.34,0,0,0-3.05,1,4.23,4.23,0,0,0-1.65,1.37,2.59,2.59,0,0,0,0,3.06A4.45,4.45,0,0,0,178,49a11,11,0,0,0,3.05,1,23.21,23.21,0,0,0,4.58.38,22.75,22.75,0,0,0,4.55-.38,11,11,0,0,0,3-1,4.89,4.89,0,0,0,1.69-1.41,2.78,2.78,0,0,0,.52-1.53,2.75,2.75,0,0,0-.52-1.52,4.61,4.61,0,0,0-1.68-1.39,12,12,0,0,0-3-1A23.6,23.6,0,0,0,185.66,41.83Zm9.55-5.24-.2-.2V28h-8v4.17l-.2.2H163.68l-.2-.2V6.37l.2-.2h6.48l.2.2v7.49h9.95V6.37l.2-.2h6.32l.2.2V13h8V4.89l.2-.2h6.59l.2.2v31.5l-.2.2Zm-14.9-10.17V19.78h-9.95v6.64Zm14.76-4.1V18.63h-8v3.69Z"/><path class="cls-4" d="M222.61,54.71l-.2-.2V42.39l.2-.2H229l.2.2v6.24h27.67l.2.2v5.68l-.2.2Zm26.92-9.66-.2-.2V40.52H239.6l-.2-.2V35.19l.2-.2h9.73V4.89l.2-.2h6.53l.2.2v40l-.2.2ZM228.61,41.5l-.2-.2V33.43c-1,0-1.89.06-2.8.07l-2.84,0H215l-.2-.2V27.87l.2-.2h7.64c1.83,0,3.81,0,5.89-.08s4.25-.15,6.39-.27,4.36-.29,6.5-.47,4.21-.4,6.15-.65l.22.2v5.29l-.17.2c-1.9.29-3.95.54-6.09.74s-4.24.37-6.37.51V41.3l-.2.2ZM231.9,26a17.36,17.36,0,0,1-5.26-.75,11.74,11.74,0,0,1-4-2.14,9.54,9.54,0,0,1-3.44-7.46,9.54,9.54,0,0,1,3.44-7.47,11.74,11.74,0,0,1,4-2.14,17.68,17.68,0,0,1,5.26-.75,17.5,17.5,0,0,1,5.24.75,12.07,12.07,0,0,1,4,2.14,9.9,9.9,0,0,1,2.6,3.28,9.53,9.53,0,0,1,.92,4.19,9.52,9.52,0,0,1-.92,4.18,9.8,9.8,0,0,1-2.6,3.28,11.89,11.89,0,0,1-4,2.14A17.18,17.18,0,0,1,231.9,26Zm0-15.12a8,8,0,0,0-2.82.42,4.56,4.56,0,0,0-1.73,1.1,3.83,3.83,0,0,0-.89,1.53,6.07,6.07,0,0,0-.25,1.72,6,6,0,0,0,.25,1.71,3.76,3.76,0,0,0,.89,1.53,4.56,4.56,0,0,0,1.73,1.1,8,8,0,0,0,2.82.42,8.28,8.28,0,0,0,2.85-.42,4.62,4.62,0,0,0,1.76-1.1,4.18,4.18,0,0,0,.91-1.53,5.39,5.39,0,0,0,0-3.43,4.27,4.27,0,0,0-.91-1.53,4.7,4.7,0,0,0-1.76-1.1A8.28,8.28,0,0,0,231.9,10.88Z"/><path class="cls-4" d="M77.59,55.77A28.15,28.15,0,0,1,70.45,55a17.62,17.62,0,0,1-5.19-2.24,9.74,9.74,0,0,1-3.17-3.37A8.75,8.75,0,0,1,61,45.15a8.87,8.87,0,0,1,1.06-4.25,10.09,10.09,0,0,1,3.17-3.4,17.12,17.12,0,0,1,5.19-2.26,27.68,27.68,0,0,1,7.14-.83,28,28,0,0,1,7.16.83A16.92,16.92,0,0,1,90,37.5a10.2,10.2,0,0,1,3.2,3.4,8.66,8.66,0,0,1,1.08,4.25,8.55,8.55,0,0,1-1.08,4.19A9.93,9.93,0,0,1,90,52.71,17.4,17.4,0,0,1,84.75,55,28.48,28.48,0,0,1,77.59,55.77Zm0-15.5a21.08,21.08,0,0,0-4.47.41,9.33,9.33,0,0,0-2.94,1.09,4.46,4.46,0,0,0-1.6,1.57,3.44,3.44,0,0,0,0,3.59,4.45,4.45,0,0,0,1.61,1.51,10.73,10.73,0,0,0,2.94,1.1,23.4,23.4,0,0,0,8.93,0,11.18,11.18,0,0,0,3-1.1,4.41,4.41,0,0,0,1.62-1.51,3.44,3.44,0,0,0,.51-1.78,3.55,3.55,0,0,0-.51-1.81A4.41,4.41,0,0,0,85,41.77a9.66,9.66,0,0,0-3-1.09A21.15,21.15,0,0,0,77.59,40.27Zm9-5.18-.2-.2V4.59l.2-.2h6.53l.2.2v10.5h7.18l.2.2V21l-.2.2H93.29V34.89l-.2.2ZM56.67,30.61l-.2-.2V6.83l.2-.2H80.4l.2.2v5.51l-.2.2H63.51v12.1h4.63a64.41,64.41,0,0,0,8.94-.6c2.84-.39,5.55-.81,8.06-1.25l.24.2v5.4l-.15.19c-1.17.3-2.51.56-4,.8s-3,.45-4.63.63-3.27.33-5,.44-3.37.16-5,.16Z"/><path class="cls-4" d="M114.22,54.63l-.2-.2v-17l.2-.2h6.48l.2.2v11h26.29l.2.2v5.74l-.2.2ZM107,32.58l-.2-.2V26.7l.2-.2h31c.34-2.7.62-5.3.82-7.73s.32-4.64.32-6.61H113.63l-.2-.2V6.23l.2-.2h32.5l.2.2c-.08,3.85-.23,7.55-.46,11s-.47,6.5-.75,9.26h8.38l.2.2v5.68l-.2.2Z"/><path class="cls-4" d="M185.36,55.77a30.68,30.68,0,0,1-7.24-.77,17.87,17.87,0,0,1-5.26-2.1,9.48,9.48,0,0,1-3.23-3.15,7.65,7.65,0,0,1,0-7.87,9.55,9.55,0,0,1,3.23-3.18,17.87,17.87,0,0,1,5.26-2.1,30.62,30.62,0,0,1,7.24-.77,31.06,31.06,0,0,1,7.27.77,18,18,0,0,1,5.28,2.1,9.71,9.71,0,0,1,3.25,3.18,7.47,7.47,0,0,1,0,7.87,9.73,9.73,0,0,1-3.25,3.15,17.9,17.9,0,0,1-5.28,2.1A31.12,31.12,0,0,1,185.36,55.77Zm0-14.24a24.08,24.08,0,0,0-4.58.37,11.34,11.34,0,0,0-3.05,1,4.23,4.23,0,0,0-1.65,1.37,2.59,2.59,0,0,0,0,3.06,4.45,4.45,0,0,0,1.65,1.41,11,11,0,0,0,3.05,1,23.21,23.21,0,0,0,4.58.38,22.75,22.75,0,0,0,4.55-.38,11,11,0,0,0,3-1,4.89,4.89,0,0,0,1.69-1.41,2.78,2.78,0,0,0,.52-1.53,2.75,2.75,0,0,0-.52-1.52,4.61,4.61,0,0,0-1.68-1.39,12,12,0,0,0-3-1A23.6,23.6,0,0,0,185.36,41.53Zm9.55-5.24-.2-.2V27.66h-8v4.17l-.2.2H163.38l-.2-.2V6.07l.2-.2h6.48l.2.2v7.49H180V6.07l.2-.2h6.32l.2.2v6.67h8V4.59l.2-.2h6.59l.2.2v31.5l-.2.2ZM180,26.12V19.48h-9.95v6.64ZM194.77,22V18.33h-8V22Z"/><path class="cls-4" d="M222.31,54.41l-.2-.2V42.09l.2-.2h6.37l.2.2v6.24h27.67l.2.2v5.68l-.2.2Zm26.92-9.66-.2-.2V40.22H239.3l-.2-.2V34.89l.2-.2H249V4.59l.2-.2h6.53l.2.2v40l-.2.2ZM228.31,41.2l-.2-.2V33.13c-1,0-1.89.06-2.8.07l-2.84,0h-7.75l-.2-.2V27.57l.2-.2h7.64c1.83,0,3.81,0,5.89-.08s4.25-.15,6.39-.27,4.36-.29,6.5-.47,4.21-.4,6.15-.65l.22.2v5.29l-.17.2c-1.9.29-4,.54-6.09.74s-4.24.37-6.37.51V41l-.2.2Zm3.29-15.5a17.36,17.36,0,0,1-5.26-.75,11.74,11.74,0,0,1-4-2.14,9.54,9.54,0,0,1-3.44-7.46,9.54,9.54,0,0,1,3.44-7.47,11.74,11.74,0,0,1,4-2.14A17.68,17.68,0,0,1,231.6,5a17.5,17.5,0,0,1,5.24.75,12.07,12.07,0,0,1,4,2.14,9.9,9.9,0,0,1,2.6,3.28,9.53,9.53,0,0,1,.92,4.19,9.52,9.52,0,0,1-.92,4.18,9.8,9.8,0,0,1-2.6,3.28,11.89,11.89,0,0,1-4,2.14A17.18,17.18,0,0,1,231.6,25.7Zm0-15.12a8,8,0,0,0-2.82.42,4.56,4.56,0,0,0-1.73,1.1,3.83,3.83,0,0,0-.89,1.53,6.07,6.07,0,0,0-.25,1.72,6,6,0,0,0,.25,1.71,3.76,3.76,0,0,0,.89,1.53,4.56,4.56,0,0,0,1.73,1.1,8,8,0,0,0,2.82.42,8.28,8.28,0,0,0,2.85-.42,4.62,4.62,0,0,0,1.76-1.1,4.18,4.18,0,0,0,.91-1.53,5.39,5.39,0,0,0,0-3.43,4.27,4.27,0,0,0-.91-1.53,4.7,4.7,0,0,0-1.76-1.1A8.28,8.28,0,0,0,231.6,10.58Z"/><path class="cls-4" d="M77.29,55.47a28.15,28.15,0,0,1-7.14-.82A17.62,17.62,0,0,1,65,52.41,9.74,9.74,0,0,1,61.79,49a8.75,8.75,0,0,1-1.06-4.19,8.87,8.87,0,0,1,1.06-4.25A10.09,10.09,0,0,1,65,37.2a17.12,17.12,0,0,1,5.19-2.26,27.68,27.68,0,0,1,7.14-.83,28,28,0,0,1,7.16.83,16.92,16.92,0,0,1,5.21,2.26,10.2,10.2,0,0,1,3.2,3.4,8.66,8.66,0,0,1,1.08,4.25A8.55,8.55,0,0,1,92.86,49a9.93,9.93,0,0,1-3.2,3.37,17.4,17.4,0,0,1-5.21,2.24A28.48,28.48,0,0,1,77.29,55.47Zm0-15.5a21.08,21.08,0,0,0-4.47.41,9.33,9.33,0,0,0-2.94,1.09A4.46,4.46,0,0,0,68.28,43a3.44,3.44,0,0,0,0,3.59,4.45,4.45,0,0,0,1.61,1.51,10.73,10.73,0,0,0,2.94,1.1,23.4,23.4,0,0,0,8.93,0,11.18,11.18,0,0,0,3-1.1,4.41,4.41,0,0,0,1.62-1.51,3.44,3.44,0,0,0,.51-1.78A3.55,3.55,0,0,0,86.35,43a4.41,4.41,0,0,0-1.63-1.57,9.66,9.66,0,0,0-3-1.09A21.15,21.15,0,0,0,77.29,40Zm9-5.18-.2-.2V4.29l.2-.2h6.53l.2.2v10.5h7.18l.2.2v5.68l-.2.2H93V34.59l-.2.2ZM56.37,30.31l-.2-.2V6.53l.2-.2H80.1l.2.2V12l-.2.2H63.21v12.1h4.63a64.41,64.41,0,0,0,8.94-.6c2.84-.39,5.55-.81,8.06-1.25l.24.2v5.4l-.15.19c-1.17.3-2.51.56-4,.8s-3,.45-4.63.63-3.27.33-5,.44-3.37.16-5,.16Z"/><path class="cls-4" d="M113.92,54.33l-.2-.2v-17l.2-.2h6.48l.2.2v11h26.29l.2.2v5.74l-.2.2Zm-7.22-22-.2-.2V26.4l.2-.2h31c.34-2.7.62-5.3.82-7.73s.32-4.64.32-6.61H113.33l-.2-.2V5.93l.2-.2h32.5l.2.2c-.08,3.85-.23,7.55-.46,11s-.47,6.5-.75,9.26h8.38l.2.2v5.68l-.2.2Z"/><path class="cls-4" d="M185.06,55.47a30.68,30.68,0,0,1-7.24-.77,17.87,17.87,0,0,1-5.26-2.1,9.48,9.48,0,0,1-3.23-3.15,7.65,7.65,0,0,1,0-7.87,9.55,9.55,0,0,1,3.23-3.18,17.87,17.87,0,0,1,5.26-2.1,30.62,30.62,0,0,1,7.24-.77,31.06,31.06,0,0,1,7.27.77,18,18,0,0,1,5.28,2.1,9.71,9.71,0,0,1,3.25,3.18,7.47,7.47,0,0,1,0,7.87,9.73,9.73,0,0,1-3.25,3.15,17.9,17.9,0,0,1-5.28,2.1A31.12,31.12,0,0,1,185.06,55.47Zm0-14.24a24.08,24.08,0,0,0-4.58.37,11.34,11.34,0,0,0-3,1A4.23,4.23,0,0,0,175.78,44a2.59,2.59,0,0,0,0,3.06,4.45,4.45,0,0,0,1.65,1.41,11,11,0,0,0,3,1,23.21,23.21,0,0,0,4.58.38,22.75,22.75,0,0,0,4.55-.38,11,11,0,0,0,3-1A4.89,4.89,0,0,0,194.32,47a2.78,2.78,0,0,0,.52-1.53,2.75,2.75,0,0,0-.52-1.52,4.61,4.61,0,0,0-1.68-1.39,12,12,0,0,0-3-1A23.6,23.6,0,0,0,185.06,41.23ZM194.61,36l-.2-.2V27.36h-8v4.17l-.2.2H163.08l-.2-.2V5.77l.2-.2h6.48l.2.2v7.49h10V5.77l.2-.2h6.32l.2.2v6.67h8V4.29l.2-.2h6.59l.2.2v31.5l-.2.2Zm-14.9-10.17V19.18h-10v6.64Zm14.76-4.1V18h-8v3.69Z"/><path class="cls-4" d="M222,54.11l-.2-.2V41.79l.2-.2h6.37l.2.2V48h27.67l.2.2v5.68l-.2.2Zm26.92-9.66-.2-.2V39.92H239l-.2-.2V34.59l.2-.2h9.73V4.29l.2-.2h6.53l.2.2v40l-.2.2ZM228,40.9l-.2-.2V32.83c-1,0-1.89.06-2.8.07l-2.84,0h-7.75l-.2-.2V27.27l.2-.2h7.64c1.83,0,3.81,0,5.89-.08s4.25-.15,6.39-.27,4.36-.29,6.5-.47,4.21-.4,6.15-.65l.22.2v5.29l-.17.2c-1.9.29-3.95.54-6.09.74s-4.24.37-6.37.51V40.7l-.2.2Zm3.29-15.5a17.36,17.36,0,0,1-5.26-.75,11.74,11.74,0,0,1-4-2.14,9.54,9.54,0,0,1-3.44-7.46A9.54,9.54,0,0,1,222,7.58a11.74,11.74,0,0,1,4-2.14,17.68,17.68,0,0,1,5.26-.75,17.5,17.5,0,0,1,5.24.75,12.07,12.07,0,0,1,4,2.14,9.9,9.9,0,0,1,2.6,3.28,9.53,9.53,0,0,1,.92,4.19,9.52,9.52,0,0,1-.92,4.18,9.8,9.8,0,0,1-2.6,3.28,11.89,11.89,0,0,1-4,2.14A17.18,17.18,0,0,1,231.3,25.4Zm0-15.12a8,8,0,0,0-2.82.42,4.56,4.56,0,0,0-1.73,1.1,3.83,3.83,0,0,0-.89,1.53,6.07,6.07,0,0,0-.25,1.72,6,6,0,0,0,.25,1.71,3.76,3.76,0,0,0,.89,1.53,4.56,4.56,0,0,0,1.73,1.1,8,8,0,0,0,2.82.42,8.28,8.28,0,0,0,2.85-.42,4.62,4.62,0,0,0,1.76-1.1,4.18,4.18,0,0,0,.91-1.53,5.39,5.39,0,0,0,0-3.43,4.27,4.27,0,0,0-.91-1.53,4.7,4.7,0,0,0-1.76-1.1A8.28,8.28,0,0,0,231.3,10.28Z"/><path class="cls-4" d="M77,55.17a28.15,28.15,0,0,1-7.14-.82,17.62,17.62,0,0,1-5.19-2.24,9.74,9.74,0,0,1-3.17-3.37,8.75,8.75,0,0,1-1.06-4.19,8.87,8.87,0,0,1,1.06-4.25,10.09,10.09,0,0,1,3.17-3.4,17.12,17.12,0,0,1,5.19-2.26A27.68,27.68,0,0,1,77,33.81a28,28,0,0,1,7.16.83,16.92,16.92,0,0,1,5.21,2.26,10.2,10.2,0,0,1,3.2,3.4,8.66,8.66,0,0,1,1.08,4.25,8.55,8.55,0,0,1-1.08,4.19,9.93,9.93,0,0,1-3.2,3.37,17.4,17.4,0,0,1-5.21,2.24A28.48,28.48,0,0,1,77,55.17Zm0-15.5a21.08,21.08,0,0,0-4.47.41,9.33,9.33,0,0,0-2.94,1.09A4.46,4.46,0,0,0,68,42.74a3.44,3.44,0,0,0,0,3.59,4.45,4.45,0,0,0,1.61,1.51,10.73,10.73,0,0,0,2.94,1.1,23.4,23.4,0,0,0,8.93,0,11.18,11.18,0,0,0,3-1.1,4.41,4.41,0,0,0,1.62-1.51,3.44,3.44,0,0,0,.51-1.78,3.55,3.55,0,0,0-.51-1.81,4.41,4.41,0,0,0-1.63-1.57,9.66,9.66,0,0,0-3-1.09A21.15,21.15,0,0,0,77,39.67Zm9-5.18-.2-.2V4l.2-.2h6.53l.2.2v10.5h7.18l.2.2v5.68l-.2.2H92.69V34.29l-.2.2ZM56.07,30l-.2-.2V6.23l.2-.2H79.8l.2.2v5.51l-.2.2H62.91V24h4.63a64.41,64.41,0,0,0,8.94-.6c2.84-.39,5.55-.81,8.06-1.25l.24.2v5.4l-.15.19c-1.17.3-2.51.56-4,.8s-3,.45-4.63.63-3.27.33-5,.44-3.37.16-5,.16Z"/><path class="cls-4" d="M113.62,54l-.2-.2v-17l.2-.2h6.48l.2.2v11h26.29l.2.2v5.74l-.2.2ZM106.4,32l-.2-.2V26.1l.2-.2h31c.34-2.7.62-5.3.82-7.73s.32-4.64.32-6.61H113l-.2-.2V5.63l.2-.2h32.5l.2.2c-.08,3.85-.23,7.55-.46,11s-.47,6.5-.75,9.26h8.38l.2.2v5.68l-.2.2Z"/><path class="cls-4" d="M184.76,55.17a30.68,30.68,0,0,1-7.24-.77,17.87,17.87,0,0,1-5.26-2.1A9.48,9.48,0,0,1,169,49.15a7.65,7.65,0,0,1,0-7.87,9.55,9.55,0,0,1,3.23-3.18,17.87,17.87,0,0,1,5.26-2.1,30.62,30.62,0,0,1,7.24-.77A31.06,31.06,0,0,1,192,36a18,18,0,0,1,5.28,2.1,9.71,9.71,0,0,1,3.25,3.18,7.47,7.47,0,0,1,0,7.87,9.73,9.73,0,0,1-3.25,3.15A17.9,17.9,0,0,1,192,54.4,31.12,31.12,0,0,1,184.76,55.17Zm0-14.24a24.08,24.08,0,0,0-4.58.37,11.34,11.34,0,0,0-3.05,1,4.23,4.23,0,0,0-1.65,1.37,2.59,2.59,0,0,0,0,3.06,4.45,4.45,0,0,0,1.65,1.41,11,11,0,0,0,3.05,1,23.21,23.21,0,0,0,4.58.38,22.75,22.75,0,0,0,4.55-.38,11,11,0,0,0,3-1A4.89,4.89,0,0,0,194,46.73a2.78,2.78,0,0,0,.52-1.53,2.75,2.75,0,0,0-.52-1.52,4.61,4.61,0,0,0-1.68-1.39,12,12,0,0,0-3-1A23.6,23.6,0,0,0,184.76,40.93Zm9.55-5.24-.2-.2V27.06h-8v4.17l-.2.2H162.78l-.2-.2V5.47l.2-.2h6.48l.2.2V13h9.95V5.47l.2-.2h6.32l.2.2v6.67h8V4l.2-.2h6.59l.2.2v31.5l-.2.2Zm-14.9-10.17V18.88h-9.95v6.64Zm14.76-4.1V17.73h-8v3.69Z"/><path class="cls-4" d="M221.71,53.81l-.2-.2V41.49l.2-.2h6.37l.2.2v6.24H256l.2.2v5.68l-.2.2Zm26.92-9.66-.2-.2V39.62H238.7l-.2-.2V34.29l.2-.2h9.73V4l.2-.2h6.53l.2.2V44l-.2.2ZM227.71,40.6l-.2-.2V32.53c-1,0-1.89.06-2.8.07l-2.84,0h-7.75l-.2-.2V27l.2-.2h7.64c1.83,0,3.81,0,5.89-.08s4.25-.15,6.39-.27,4.36-.29,6.5-.47,4.21-.4,6.15-.65l.22.2v5.29l-.17.2c-1.9.29-4,.54-6.09.74s-4.24.37-6.37.51V40.4l-.2.2ZM231,25.1a17.36,17.36,0,0,1-5.26-.75,11.74,11.74,0,0,1-4-2.14,9.54,9.54,0,0,1-3.44-7.46,9.54,9.54,0,0,1,3.44-7.47,11.74,11.74,0,0,1,4-2.14A17.68,17.68,0,0,1,231,4.39a17.5,17.5,0,0,1,5.24.75,12.07,12.07,0,0,1,4,2.14,9.9,9.9,0,0,1,2.6,3.28,9.53,9.53,0,0,1,.92,4.19,9.52,9.52,0,0,1-.92,4.18,9.8,9.8,0,0,1-2.6,3.28,11.89,11.89,0,0,1-4,2.14A17.18,17.18,0,0,1,231,25.1ZM231,10a8,8,0,0,0-2.82.42,4.56,4.56,0,0,0-1.73,1.1,3.83,3.83,0,0,0-.89,1.53,6.07,6.07,0,0,0-.25,1.72,6,6,0,0,0,.25,1.71,3.76,3.76,0,0,0,.89,1.53,4.56,4.56,0,0,0,1.73,1.1,8,8,0,0,0,2.82.42,8.28,8.28,0,0,0,2.85-.42,4.62,4.62,0,0,0,1.76-1.1,4.18,4.18,0,0,0,.91-1.53,5.39,5.39,0,0,0,0-3.43,4.27,4.27,0,0,0-.91-1.53,4.7,4.7,0,0,0-1.76-1.1A8.28,8.28,0,0,0,231,10Z"/><text class="cls-5" transform="translate(50.02 46.89) scale(0.97 1)">당근병원</text><rect class="cls-6" x="6" y="14.2" width="42.55" height="43.12" rx="4.49"/><rect class="cls-7" x="2" y="10.2" width="42.55" height="43.12" rx="4.49"/><rect class="cls-7" x="1" y="9.2" width="42.55" height="43.12" rx="4.49"/><rect class="cls-7" y="8.2" width="42.55" height="43.12" rx="4.49"/><rect class="cls-8" y="8.2" width="42.55" height="43.12" rx="4.49"/><rect class="cls-9" x="1.53" y="9.74" width="39.5" height="40.03" rx="4.49"/><polygon class="cls-10" points="37.01 26.83 28.13 26.83 28.13 17.84 27.99 17.7 18.55 17.7 18.42 17.84 18.42 26.83 9.54 26.83 9.4 26.97 9.4 36.54 9.54 36.68 18.42 36.68 18.42 45.67 18.55 45.81 27.99 45.81 28.13 45.67 28.13 36.68 37.01 36.68 37.15 36.54 37.15 26.97 37.01 26.83"/><polygon class="cls-10" points="35.01 24.83 26.13 24.83 26.13 15.84 25.99 15.7 16.55 15.7 16.42 15.84 16.42 24.83 7.54 24.83 7.4 24.97 7.4 34.54 7.54 34.68 16.42 34.68 16.42 43.67 16.55 43.81 25.99 43.81 26.13 43.67 26.13 34.68 35.01 34.68 35.15 34.54 35.15 24.97 35.01 24.83"/><polygon class="cls-11" points="35.01 24.83 26.13 24.83 26.13 15.84 25.99 15.7 16.55 15.7 16.42 15.84 16.42 24.83 7.54 24.83 7.4 24.97 7.4 34.54 7.54 34.68 16.42 34.68 16.42 43.67 16.55 43.81 25.99 43.81 26.13 43.67 26.13 34.68 35.01 34.68 35.15 34.54 35.15 24.97 35.01 24.83"/><polygon class="cls-12" points="35.51 25.33 26.63 25.33 26.63 16.34 26.49 16.2 17.05 16.2 16.92 16.34 16.92 25.33 8.04 25.33 7.9 25.47 7.9 35.04 8.04 35.18 16.92 35.18 16.92 44.17 17.05 44.31 26.49 44.31 26.63 44.17 26.63 35.18 35.51 35.18 35.65 35.04 35.65 25.47 35.51 25.33"/></g></g></svg>