<svg xmlns="http://www.w3.org/2000/svg" viewBox="0 0 46 46.17"><defs><style>.cls-1{fill:#0c0;}.cls-2{fill:#fff;}</style></defs><title>naver</title><g id="레이어_2" data-name="레이어 2"><g id="레이어_1-2" data-name="레이어 1"><rect class="cls-1" width="46" height="46.17"/><path class="cls-2" d="M30.67,37.13a2,2,0,0,1-.75-.09,1.46,1.46,0,0,1-.46-.49L16.17,19.46,16,36.26a1.22,1.22,0,0,1-.14.73,1.6,1.6,0,0,1-.88.14H10.78A1.75,1.75,0,0,1,9.9,37c-.13-.1-.19-.34-.19-.73V10a1.3,1.3,0,0,1,.16-.8c.11-.12.45-.18,1-.18h4.6a1.62,1.62,0,0,1,.75.11,2.09,2.09,0,0,1,.51.58l13.16,17L30,9.91a1.07,1.07,0,0,1,.16-.71A1.4,1.4,0,0,1,31,9h4.18c.56,0,.89.06,1,.18a1.22,1.22,0,0,1,.14.69v26.2c0,.47-.06.75-.19.86a1.86,1.86,0,0,1-1,.16Z"/></g></g></svg>