<svg xmlns="http://www.w3.org/2000/svg" viewBox="0 0 125.01 37.17"><defs><style>.cls-1{fill:#f6b962;}.cls-2,.cls-3{fill:#fff;}.cls-2,.cls-3,.cls-4{stroke:#231815;stroke-miterlimit:10;}.cls-3,.cls-4{stroke-linecap:round;}.cls-4{fill:none;}</style></defs><title>예약 확인</title><g id="레이어_2" data-name="레이어 2"><g id="레이어_2-2" data-name="레이어 2"><rect class="cls-1" width="125.01" height="37.17" rx="18.58"/><rect class="cls-2" x="12.31" y="7.97" width="24.14" height="4.39" rx="1.46"/><path class="cls-2" d="M14,28.8a1.8,1.8,0,0,0,1.8,1.8H33a1.8,1.8,0,0,0,1.8-1.8V12.37H14Z"/><line class="cls-3" x1="17.94" y1="5.88" x2="17.94" y2="9.2"/><line class="cls-3" x1="30.75" y1="5.88" x2="30.75" y2="9.2"/><rect class="cls-4" x="16.42" y="15.7" width="2.49" height="2.49" rx="0.39"/><rect class="cls-4" x="21.02" y="15.7" width="2.49" height="2.49" rx="0.39"/><rect class="cls-4" x="25.63" y="15.7" width="2.49" height="2.49" rx="0.39"/><rect class="cls-4" x="30.23" y="15.7" width="2.49" height="2.49" rx="0.39"/><rect class="cls-4" x="16.42" y="20.6" width="2.49" height="2.49" rx="0.39"/><rect class="cls-4" x="21.02" y="20.6" width="2.49" height="2.49" rx="0.39"/><rect class="cls-4" x="25.63" y="20.6" width="2.49" height="2.49" rx="0.39"/><rect class="cls-4" x="30.23" y="20.6" width="2.49" height="2.49" rx="0.39"/><rect class="cls-4" x="16.42" y="25.22" width="2.49" height="2.49" rx="0.39"/><rect class="cls-4" x="21.02" y="25.22" width="2.49" height="2.49" rx="0.39"/></g></g></svg>